Patient4_TMGait_0pt7_02_left_04_EMG.mot
version=1
nRows=40
nColumns=33
inDegrees=no
endheader
time	1LAddLong	2LGlutMax	3LGlutMed	4LIliopsoas	5LSemiMemb	6LBicFemLong	7LRecFem	8LVastMed	9LVastLat	10LGasMed	11LTibAnt	12lTibPost	13LPeroneusLong	14LSol	15LExtDigLong	16LFlexDigLong	17RAddLong	18RGlutMax	19RGlutMed	20RIliopsoas	21RSemiMemb	22RBicFemLong	23RRecFem	24RVastMed	25RVastLat	26RGasMed	27RTibAnt	28RTibPost	29RPeroneusLong	30RSol	31RExtDigLong	32RFlexDigLong
5.39	0.01358	-0.18463	-0.020294	0.004272	-0.027161	0.016174	-0.023804	0.002747	0.068817	-0.038605	0.024567	0.009003	0.10468	0.019073	0.011902	-0.038605	-0.022125	-0.12177	-0.34546	-0.029144	0.12817	-0.050659	-0.028992	0.023041	-0.031738	-0.063477	0.11459	-0.002441	-0.33585	-0.33371	-0.00473	-0.007935
5.391	0.005646	-0.1828	-0.017395	-0.00885	-0.028381	0.010834	-0.054321	-0.002136	0.059052	-0.037231	0.02121	-0.003662	0.096283	0.046082	0.00885	-0.002899	-0.02655	-0.067291	-0.058899	-0.14267	0.2301	-0.10956	-0.045319	0.15335	0.001678	0.009308	0.1474	-0.009918	-0.58823	-0.22949	-0.002747	-0.008087
5.392	0.014801	-0.17212	0.005188	-0.012512	-0.001373	0.044861	-0.016785	0.003967	0.049591	-0.001678	0.034332	0.004578	0.058136	0.030365	0.000916	-0.016479	0.028381	-0.072632	0.18188	-0.21088	0.10696	-0.16144	-0.036011	0.17731	0.066376	0.055847	0.15167	-0.036926	-0.63614	-0.12421	-0.002594	-0.01236
5.393	0.005798	-0.18967	0.000305	-0.010681	0.021667	0.059814	-0.02121	0.010834	0.045776	0.004425	0.037079	-0.001068	0.042419	0.004883	-0.024719	-0.000153	0.027161	-0.033417	0.5159	-0.20004	-0.11948	-0.13931	-0.1384	0.12817	0.10269	0.045471	0.02533	-0.021057	-1.107	-0.073853	-0.001984	-0.015411
5.394	0.014191	-0.18616	-0.058746	0.000458	0.015717	0.061188	-0.031281	0.002136	0.037689	-0.002289	0.029449	0.006104	0.052032	-0.010223	-0.016327	0.00061	-0.010529	-0.096588	-0.14511	-0.028381	-0.31784	-0.048828	-0.23102	0.12772	0.11749	-0.024872	-0.11124	0.026398	-0.44311	-0.069733	-0.002899	-0.019073
5.395	0.005951	-0.23895	-0.13565	-0.03418	-0.027008	0.076141	-0.006866	0.003357	0.039215	-0.022125	0.076599	-0.006714	0.054779	-0.023804	-0.03479	0.016022	0.00061	-0.20783	-0.076904	0.14648	0.045929	-0.057373	-0.072632	0.084686	0.07019	-0.070496	-0.10346	0.006256	0.74509	-0.053253	-0.001831	-0.012817
5.396	0.000153	-0.21393	-0.17258	0.018158	-0.049744	0.064392	-0.020752	0.003052	0.048981	-0.028381	0.063934	0.009155	0.059814	-0.033569	0.004425	-0.00473	0.039063	-0.19287	0.25604	0.30762	0.23483	-0.055084	0.040436	-0.10986	0.041199	-0.066223	-0.015717	-0.23727	-0.32272	-0.014343	-0.002594	-0.011444
5.397	0.009308	-0.2121	-0.15778	-0.02655	-0.078735	0.052643	-0.030975	0.001221	0.037231	-0.021667	-0.006866	-0.011139	0.036316	-0.056	0.002899	0.013885	0.013885	-0.16388	0.20218	0.28183	-0.029907	-0.035858	0.12665	-0.19821	0.071259	0.11856	0.007935	-0.16892	-0.6134	-0.12177	-0.001678	-0.001831
5.398	0.01297	-0.21469	-0.11841	-0.015259	-0.032959	0.014801	-0.023346	0	0.04837	-0.024872	-0.057526	0.000916	0.005798	-0.032349	0.054321	0.001526	-0.024872	-0.12924	0.33798	0.07431	-0.31784	-0.025482	0.078125	-0.1355	0.087585	0.069427	0.005951	0.04715	-0.093842	-0.23239	-0.002899	-0.009308
5.399	0.019531	-0.25284	0.025635	0.009308	-0.029907	-0.03891	-0.030518	-0.00412	0.047455	-0.036774	-0.015564	-0.006866	0.008545	-0.010529	0.045471	0.014496	-0.049896	-0.081024	0.28976	-0.053101	-0.17044	-0.095062	0.038452	-0.058746	0.071106	-0.065765	-0.020447	0.38162	0.19196	-0.46982	-0.002747	-0.00885
5.4	0.015411	-0.28259	0.12116	-0.00824	0.003662	-0.034332	-0.016174	-0.001678	0.046539	-0.03479	-0.032196	-0.00412	0.030365	-0.018616	-0.001373	0.003815	-0.037842	-0.088043	0.16296	-0.074921	-0.16998	-0.12695	-0.012817	-0.019073	0.089874	-0.063477	-0.054169	0.19379	0.728	0.16388	-0.002594	-0.011902
5.401	0.010529	-0.30334	0.19409	-0.003204	0.015106	-0.001678	-0.022888	0.003662	0.054016	-0.063782	-0.033112	-0.003357	0.053711	-0.028534	0.007629	0.002594	-0.027466	-0.068207	0.10468	-0.050201	-0.071411	-0.029144	0.045319	-0.037079	0.059967	-0.002747	-0.005951	-0.014648	0.73044	0.57587	-0.005493	-0.012207
5.402	-0.008392	-0.29266	0.12436	-0.024719	0.028534	0.049744	-0.030212	-0.004425	0.041504	-0.032349	0.004272	-0.001221	0.063782	-0.039368	-0.026855	0.008087	-0.016022	-0.10773	0.06012	0.007782	-0.048218	0.057068	0.061951	-0.039978	0.046844	-0.009918	-0.00061	-0.086212	0.49728	0.053711	-0.00412	-0.011749
5.403	-0.004425	-0.30289	0.11643	-0.021057	-0.002289	0.11932	-0.027008	0.005798	0.041504	0.005188	0.016632	-0.002289	0.045776	-0.040283	-0.030212	0.005646	-0.004883	-0.13519	-0.00824	0.084686	-0.084534	0.063934	0.024567	0.004578	0.02655	-0.012054	-0.021667	-0.08606	0.44662	0.024719	0.005188	-0.016632
5.404	-0.018311	-0.29892	0.055237	-0.013275	-0.065765	0.11017	-0.012207	0.010986	0.031281	-0.012665	0.019531	-0.005951	0.036774	-0.047913	-0.065308	0.002289	0.011444	-0.11765	0.002289	0.12573	-0.077057	0.074463	0.13229	-0.02655	0.00824	-0.014343	-0.011902	-0.011597	0.30594	-0.20676	-0.003204	-0.017853
5.405	-0.004425	-0.29968	-0.033417	0.001373	-0.11337	-0.037079	-0.024261	0.001526	0.037384	0.002899	0.0383	-0.004883	0.016785	-0.070801	-0.023499	-0.009613	-0.004578	-0.12207	0.036163	0.072632	-0.056152	0.094452	0.14404	0.016632	0.010681	-0.016174	0.048828	0.058136	0.18021	-0.27039	-0.003357	-0.02121
5.406	0.021667	-0.3064	-0.12512	-0.003357	-0.072632	-0.052795	-0.019684	-0.002899	0.051575	-0.004272	0.047455	-0.003815	0.014343	-0.051117	0.014954	0.003967	0	-0.14008	0.10925	0.007019	0.02594	0.14008	0.15945	0.022278	0.041656	-0.020599	0.032501	0.017548	0.008087	-0.1535	0.000305	-0.01297
5.407	0.028687	-0.25238	-0.080719	-0.006866	0.020142	-0.083466	-0.02594	0.004883	0.045776	-0.016022	0.03952	-0.00061	0.016632	-0.076141	0.022583	0.002441	0.002289	-0.10696	0.15228	0.007172	0.077667	0.13031	0.2066	0.01236	0.060272	-0.016022	-0.054321	0.012665	0.07309	-0.17456	-0.000763	-0.012512
5.408	0.032654	-0.28275	0.034027	-0.006714	0.088043	-0.057678	-0.026855	0.008392	0.050201	-0.028076	-0.014801	-0.000153	0.018311	-0.048218	0.016327	0.006409	0.012817	-0.092926	0.1297	0.007935	0.05188	0.13016	0.20218	-0.10239	0.013123	-0.031738	-0.018921	0.021362	-0.33752	-0.35934	-0.004272	-0.015411
5.409	0.04364	-0.29831	0.019684	-0.013733	0.034027	-0.03891	-0.01709	0.000916	0.055695	-0.037842	-0.039978	-0.00473	0.014954	-0.001831	0.029907	0.009155	0.005951	-0.16205	-0.008392	0.041656	0.056305	0.077972	0.13534	-0.16113	0.056	-0.029449	0.097351	0.013275	-0.46509	-0.14542	0.000153	-0.019531
5.41	0.007477	-0.30655	0.070801	-0.002899	-0.003357	-0.065002	-0.014648	0.001221	0.056	-0.026245	-0.005188	-0.002289	0.009918	-0.03479	0.001373	0.00061	0.008392	-0.12421	0.14389	0.010376	0.027008	-0.006104	0.14389	-0.13107	-0.021057	-0.021057	0.28351	-0.004425	1.2907	-0.12253	-0.009155	-0.015259
5.411	0.067139	-0.30579	0.11337	0.008545	0.005035	-0.06134	-0.02182	0.003967	0.055847	-0.031433	-0.005798	-0.006409	0.0354	-0.086975	-0.065765	-0.007782	0.002747	-0.038605	0.43243	-0.019989	-0.004578	-0.085449	0.14603	-0.090332	-0.06073	-0.00061	0.38483	-0.001373	2.2893	-0.25971	-0.002899	-0.01358
5.412	0.031128	-0.32455	0.097198	-0.005951	0.011597	-0.050964	-0.037842	-0.002747	0.037079	-0.023346	0.009003	-0.00412	0.033417	-0.091248	-0.036316	0.000458	0.005646	-0.077667	0.392	-0.046997	-0.016479	-0.017242	-0.076599	-0.062866	-0.062103	0.019226	0.4155	0.023041	-0.39017	-0.3714	-0.003052	0.003052
5.413	0.004425	-0.29816	0.041962	0.010529	0.004272	-0.020752	-0.018921	0.000153	0.046539	-0.032806	0.016937	-0.000763	0.02594	-0.093384	-0.001831	0.003357	0.003815	-0.060577	0.32013	-0.10681	-0.03418	-0.030365	-0.11978	-0.065155	0.08316	0.019379	-0.052643	0.02121	-0.38498	-0.24841	-0.003967	0.007935
5.414	0.009308	-0.26291	0.048523	-0.006561	0.047302	0.016022	-0.03067	0.008392	0.049286	-0.056915	0.012512	0.000153	0.003815	-0.14374	-0.003357	0.001984	0.003967	-0.042725	-0.047913	-0.16815	-0.040588	-0.023804	-0.045624	-0.10712	0.11246	0.022888	-0.90683	0.021362	1.0011	-0.22201	-0.001831	0.005188
5.415	-0.000458	-0.271	-0.0177	0.021057	0.015259	0.029907	-0.034332	0.010834	0.051422	-0.062866	0.01236	0.001373	-0.023041	-0.12024	0.001221	0.000153	0.004578	-0.070343	-0.23865	-0.076599	-0.022736	-0.016632	-0.20218	-0.24231	0.086212	0.012207	-0.62195	0.014038	-0.020599	-0.093842	-0.004272	-0.001526
5.416	-0.005493	-0.26321	-0.053711	0.00061	-0.04364	0.005341	-0.021362	0.013275	0.042725	-0.046082	0.0177	0.010071	-0.026398	-0.093384	0.00412	0.001678	-0.005798	-0.058289	-0.42648	0.066833	-0.031433	0.003357	-0.20706	-0.14038	0.085449	-0.018005	-0.34637	0.010376	-0.43533	0.022278	-0.003967	-0.007324
5.417	-0.004578	-0.24536	-0.049286	-0.014954	-0.030212	0.077667	-0.026703	0.011902	0.044403	-0.014191	0.032043	0.00412	-0.006104	-0.13672	0.00473	0.004272	0.003815	-0.050964	0.084839	0.068817	-0.043335	0.019989	-0.11368	0.020752	0.058899	-0.019836	0.007324	0.013428	-0.67093	0.13306	-0.005341	-0.008545
5.418	-0.004578	-0.29953	-0.04303	-0.015411	-0.017548	0.080872	-0.006256	0.010986	0.036316	-0.009918	0.016479	0.005951	-0.014343	-0.22125	0.007324	-0.00824	0.014038	-0.061951	0.45853	0.019531	-0.058594	-0.031738	0.036469	0.042114	-0.035706	-0.006561	0.23422	0.00824	0.25284	-0.083466	-0.001221	-0.010986
5.419	0.020142	-0.26199	-0.076599	-0.0177	0.031281	0.054626	-0.018005	-0.006714	0.035858	-0.013428	0.006256	0.010223	-0.036316	-0.17014	0.015411	-0.002594	0.017853	-0.023499	0.13275	-0.063782	-0.057983	-0.071869	0.092621	0.001373	-0.072632	0.011597	0.12955	0.004425	0.6073	-0.22476	-0.00351	-0.006256
5.42	0.022583	-0.25772	-0.071869	-0.005188	-0.063934	0.029907	-0.026398	0.02182	0.036011	-0.024414	0.019531	0.006714	-0.039825	-0.058289	0.0177	0.003204	0.034027	-0.057526	-0.092316	-0.15472	-0.075073	-0.07019	0.10193	-0.1004	-0.081635	0.006561	-0.3241	0.00061	-0.39566	-0.01358	-0.003357	-0.004883
5.421	0.03006	-0.22614	-0.15427	0.001221	-0.036011	0.000305	-0.030518	0.003662	0.029144	-0.018921	0.02533	0.000305	-0.031891	0.023193	0.021057	-0.005341	0.035095	-0.043488	0.072021	-0.091553	-0.086365	-0.050659	0.045624	-0.1648	-0.072784	-0.000458	-0.15793	0.006256	-1.2541	0.010986	-0.00412	-0.010834
5.422	0.02594	-0.22598	-0.21149	-0.00824	-0.026703	-0.043488	-0.010223	0.005798	0.033417	-0.027771	0.019073	-0.003967	-0.0354	0.011292	0.029755	0.013733	0.02655	-0.018158	-0.10147	0.055695	-0.14099	-0.089417	-0.003357	-0.00946	0.01297	-0.006104	0	-0.003815	-0.4451	0.19898	-0.004883	-0.007324
5.423	0.026398	-0.16373	-0.23086	0.012665	0.019684	-0.015259	0.009613	0.010223	0.025787	-0.032959	0.029449	0.00351	-0.031433	-0.025635	0.013885	0.002899	-0.009003	-0.006409	-0.14008	0.095825	-0.19638	-0.12024	-0.10208	0.1178	0.14572	0.000305	-0.035706	-0.002899	0.40451	0.27069	-0.004272	-0.011292
5.424	0.014343	-0.18463	-0.13153	-0.016937	0.053711	-0.14679	0.011597	0.005188	0.026093	-0.028076	0.018158	0.007172	-0.034485	-0.041656	0.003357	0.006866	0.020599	0.019836	0.056	0.17105	-0.10178	-0.12741	-0.03479	0.15243	0.19028	-0.004425	-0.16296	0.003357	-0.042572	0.11169	-0.002747	-0.006714
5.425	0.006256	-0.19959	-0.007935	-0.00824	0.039215	-0.20081	0.030518	0.006714	0.018005	-0.019989	0.014038	0.008545	-0.049286	-0.063019	-0.020599	0.016327	0.054016	0.064545	0.19058	0.18936	-0.023499	-0.002594	0.023956	0.002289	0.097504	0.001373	-0.052032	-0.002594	-0.23956	0.075073	-0.003815	-0.013123
5.426	0	-0.17868	0.025024	0.006256	0.023804	-0.074768	0.028687	0.013733	0.009155	-0.017395	0.042725	0.003204	-0.030212	-0.085449	-0.02533	-0.004272	0.005951	0.0914	0.18158	0.077057	-0.029755	0.20889	-0.015717	-0.065613	0.036621	-0.012817	0.11688	-0.00473	-0.103	0.19119	-0.005188	-0.012817
5.427	-0.00351	-0.12344	0.024109	0.008087	-0.018921	-0.014801	0.038147	0.016327	0.009613	-0.018768	0.11795	0.002747	-0.0354	-0.070801	-0.009308	-0.000916	-0.0383	0.080566	-0.31555	-0.017395	-0.31952	0.29037	-0.039368	0.058746	0.05188	-0.010986	0.23163	0.000916	0.11505	0.21423	-0.002441	-0.007019
5.428	-0.000305	-0.11948	-0.016327	0.005646	-0.061493	-0.022888	0.019379	0.012512	0.015411	-0.013123	0.19302	0.003662	-0.042267	-0.079041	0.001984	0.000305	-0.046387	0.077515	-0.18295	-0.1236	-0.26413	0.029449	0.027466	0.074615	0.052643	-0.009308	0.31174	-0.003052	0.069733	0.019684	-0.005341	-0.011139
5.429	0.022736	-0.1297	-0.055389	-0.007935	-0.019836	-0.084076	-0.008392	0.001526	0.009308	-0.026398	0.15564	0.005188	-0.037079	-0.062714	-0.010376	0.00351	-0.0177	0.061188	0.21622	-0.11231	0.20325	-0.2005	0.084839	0.076141	0.03891	-0.022583	0.14221	-0.005188	-0.20783	-0.05188	-0.004883	-0.018768
